<svg id="Layer_1" data-name="Layer 1" xmlns="http://www.w3.org/2000/svg" xmlns:xlink="http://www.w3.org/1999/xlink" viewBox="0 0 358.57 133.24"><defs><style>.cls-1{fill:url(#linear-gradient);}.cls-2{fill:url(#linear-gradient-2);}.cls-3{fill:url(#linear-gradient-3);}.cls-4{fill:url(#linear-gradient-4);}.cls-5{fill:url(#linear-gradient-5);}.cls-6{fill:url(#linear-gradient-6);}.cls-7{fill:#fff;}.cls-8{fill:#0055b8;}.cls-9{fill:url(#linear-gradient-7);}</style><linearGradient id="linear-gradient" x1="0.01" y1="133.25" x2="1.01" y2="133.25" gradientTransform="matrix(47.44, 47.44, 47.44, -47.44, -6262.81, 6394.58)" gradientUnits="userSpaceOnUse"><stop offset="0" stop-color="#009ad9"/><stop offset="0.39" stop-color="#009ad9"/><stop offset="0.62" stop-color="#006fba"/><stop offset="0.96" stop-color="#005f9e"/><stop offset="1" stop-color="#005f9e"/></linearGradient><linearGradient id="linear-gradient-2" x1="0.01" y1="133.25" x2="1.01" y2="133.25" gradientTransform="matrix(47.44, 47.44, 47.44, -47.44, -6225.56, 6357.33)" xlink:href="#linear-gradient"/><linearGradient id="linear-gradient-3" x1="0.01" y1="133.25" x2="1.01" y2="133.25" gradientTransform="matrix(47.44, 47.44, 47.44, -47.44, -6248, 6379.78)" xlink:href="#linear-gradient"/><linearGradient id="linear-gradient-4" x1="0.01" y1="133.25" x2="1.01" y2="133.25" gradientTransform="matrix(47.44, 47.44, 47.44, -47.44, -6280.45, 6412.22)" xlink:href="#linear-gradient"/><linearGradient id="linear-gradient-5" x1="0.01" y1="133.25" x2="1.01" y2="133.25" gradientTransform="matrix(47.44, 47.44, 47.44, -47.44, -6237, 6368.8)" xlink:href="#linear-gradient"/><linearGradient id="linear-gradient-6" y1="133.25" x2="1" y2="133.25" gradientTransform="matrix(68.17, 68.17, 68.17, -68.17, -9064.07, 9102.7)" gradientUnits="userSpaceOnUse"><stop offset="0" stop-color="#fff200"/><stop offset="0" stop-color="#fff200"/><stop offset="0.29" stop-color="#ffd400"/><stop offset="0.51" stop-color="#f79013"/><stop offset="0.69" stop-color="#f15a22"/><stop offset="1" stop-color="#f15a22"/></linearGradient><linearGradient id="linear-gradient-7" x1="0" y1="133.25" x2="1" y2="133.25" xlink:href="#linear-gradient-6"/></defs><title>background_logo_bluetext</title><path class="cls-1" d="M98,99.1l-2.06,27.36a66.77,66.77,0,0,0,16.79-11.76Z"/><path class="cls-2" d="M104.54,81.34l28.12-6.06a66.28,66.28,0,0,0-19.29-56.07,91.26,91.26,0,0,1-11.5,54.2L123.34,51.7a.31.31,0,0,1,.44,0,.33.33,0,0,1,.07.45Z"/><path class="cls-3" d="M104.38,95l10.79,17.21a67.2,67.2,0,0,0,9.21-12.42l-20-4.79Z"/><path class="cls-4" d="M82.06,97.47a91,91,0,0,1-55.83,22.1,66.55,66.55,0,0,0,65.42,8.79L90.12,99,65.2,124.21a.34.34,0,0,1-.52-.42Z"/><path class="cls-5" d="M126.57,95.7A66,66,0,0,0,132,79.29L106.94,88.2Z"/><path class="cls-6" d="M33.69,105.55a.32.32,0,0,1-.18-.62l47.9-17L33.92,69.78a.35.35,0,0,1-.21-.43.4.4,0,0,1,.4-.22L84,81.11,65.2,51.45a.35.35,0,0,1,.08-.45.33.33,0,0,1,.45,0L90.37,77,94.63,20.5a.33.33,0,0,1,.34-.32.32.32,0,0,1,.33.32l2.76,53.08a87.73,87.73,0,0,0,12.52-45.31,88.25,88.25,0,0,0-.88-12.45A66.61,66.61,0,0,0,22.38,116.41h.06A87.77,87.77,0,0,0,79.1,95.79Z"/><path class="cls-7" d="M98.06,73.58,95.3,20.5a.32.32,0,0,0-.33-.32.33.33,0,0,0-.34.32L90.38,77,65.73,51a.33.33,0,0,0-.45,0,.35.35,0,0,0-.08.45L84,81.11l-49.88-12a.38.38,0,0,0-.4.21.34.34,0,0,0,.2.42l47.5,18.14-47.9,17a.33.33,0,0,0-.22.4.32.32,0,0,0,.4.22L79.1,95.79a88.79,88.79,0,0,0,19-22.21"/><rect class="cls-8" x="163.44" y="21.58" width="16.15" height="94.72"/><path class="cls-8" d="M276.77,66.16v41.35c-10.08,6.59-21.07,10.34-35.28,10.34-27,0-50.27-19.64-50.27-48.85,0-29.46,23.65-49,50.27-49,14,0,23.91,3.87,33.6,9.82l-7.37,12.92a48,48,0,0,0-25.46-7.88c-21.58,0-33.72,15.25-33.72,34.11,0,20.16,14.86,34.51,33.59,34.51,8.15,0,13.57-1.42,19.13-4.52V80.38h-22.1V66.16Z"/><polygon class="cls-8" points="328.59 36.31 328.59 116.3 312.44 116.3 312.44 36.31 282.32 36.31 282.32 21.58 358.57 21.58 358.57 36.31 328.59 36.31"/><path class="cls-9" d="M110.58,28.27a88.25,88.25,0,0,0-.88-12.45A66.61,66.61,0,0,0,22.38,116.41h.06A88.14,88.14,0,0,0,110.58,28.27Z"/><path class="cls-7" d="M132.66,75.28l-28.12,6.07,19.31-29.22a.33.33,0,0,0-.07-.45.31.31,0,0,0-.44,0L101.87,73.41a90.82,90.82,0,0,0,11.95-45.14,90.55,90.55,0,0,0-.45-9.06c-1.18-1.17-2.4-2.31-3.67-3.39a88.25,88.25,0,0,1,.88,12.45A87.73,87.73,0,0,1,98.06,73.58L95.3,20.5a.32.32,0,0,0-.33-.32.33.33,0,0,0-.34.32L90.37,77,65.73,51a.33.33,0,0,0-.45,0,.35.35,0,0,0-.08.45L84,81.11l-49.88-12a.38.38,0,0,0-.4.21.33.33,0,0,0,.21.42L81.41,87.91l-47.9,17a.32.32,0,0,0,.18.62L79.1,95.79a87.77,87.77,0,0,1-56.66,20.62h-.06c1.24,1.1,2.53,2.15,3.85,3.16a91,91,0,0,0,55.83-22.1L64.68,123.79a.35.35,0,0,0,.07.44.34.34,0,0,0,.45,0L90.12,99l1.53,29.35c1.45-.58,2.87-1.22,4.27-1.9L98,99.1l14.73,15.6c.84-.81,1.66-1.64,2.46-2.48L104.38,95l20,4.79c.78-1.34,1.51-2.7,2.19-4.1l-19.63-7.5L132,79.29c.26-1.32.47-2.66.64-4"/><path class="cls-8" d="M340.73,109.21v6.84h-1.36v-6.84h-2.52V108h6.44v1.22Zm11,6.84-.08-5L349,115h-.15l-2.62-4,0,5h-1.33l.33-8.18h.19l3.55,5.3,3.51-5.3h.19l.33,8.18Z"/></svg>