<svg xmlns="http://www.w3.org/2000/svg" viewBox="0 0 48 38"><defs><style>.cls-1{fill:none;stroke:#fff;stroke-miterlimit:10;stroke-width:2px;}</style></defs><title>Asset 1</title><g id="Layer_2" data-name="Layer 2"><g id="icons"><path class="cls-1" d="M9,15v2c.55,0,.94-.94,2-1,1.31-.08,2.89.74,4,0a9.78,9.78,0,0,0-4,8"/><path class="cls-1" d="M21,15v2c.55,0,.94-.94,2-1,1.31-.08,2.89.74,4,0a9.78,9.78,0,0,0-4,8"/><path class="cls-1" d="M33,15v2c.55,0,.94-.94,2-1,1.31-.08,2.89.74,4,0a9.78,9.78,0,0,0-4,8"/><line class="cls-1" x1="18" y1="10" x2="18" y2="28"/><line class="cls-1" x1="30" y1="10" x2="30" y2="28"/><path class="cls-1" d="M42,30H6V8H42Z"/><rect class="cls-1" x="1" y="1" width="46" height="36" rx="3" ry="3"/></g></g></svg>