<svg xmlns="http://www.w3.org/2000/svg" viewBox="0 0 38 48.05"><defs><style>.cls-1{fill:none;stroke:#fff;stroke-miterlimit:10;stroke-width:2px;}</style></defs><title>Asset 1</title><g id="Layer_2" data-name="Layer 2"><g id="icons"><polyline class="cls-1" points="15 27.05 15 1.05 17 1.05 20 2.05 23 1.05 26 2.05 29 1.05 32 2.05 34 1.05 37 1.05 37 32.05 36 32.05 34 31.05 32 32.05 30 30.05 28 32.05 26 32.05"/><path class="cls-1" d="M21,23.55C18.14,25,17.5,29,16.91,30.33c-.9,2-.65,2.4-1.66,2.4s-4.25-2-4.25-2V25.93l4-4.88v-10L3.3,22.46A9.76,9.76,0,0,0,1,29.05c0,4.81,0,15,0,18H13.3a30.43,30.43,0,0,0,6.41-5.23c1.45-4,3.82-11.32,4.59-13.5C26.14,23,23.6,22.25,21,23.55Z"/><line class="cls-1" x1="19" y1="9.05" x2="28" y2="9.05"/><line class="cls-1" x1="31" y1="9.05" x2="33" y2="9.05"/><line class="cls-1" x1="19" y1="13.05" x2="28" y2="13.05"/><line class="cls-1" x1="31" y1="13.05" x2="33" y2="13.05"/><line class="cls-1" x1="19" y1="17.05" x2="28" y2="17.05"/><line class="cls-1" x1="31" y1="17.05" x2="33" y2="17.05"/><line class="cls-1" x1="31" y1="21.05" x2="33" y2="21.05"/></g></g></svg>